<?xml version="1.0" encoding="utf-8"?>
<svg xmlns="http://www.w3.org/2000/svg" viewBox="0 0 40 40" width="480" height="480">
  <path fill="#8bb7f0" d="M0.5 6.5H39.5V33.5H0.5z" />
  <path fill="#4e7ab5" d="M39,7v26H1V7H39 M40,6H0v28h40V6L40,6z" />
  <path fill="#fff" d="M0 9.794L18.657 22.241 21.312 17.634 3.91 6 0 6z" />
  <path fill="#fff" d="M40 6L36.938 6 19.537 17.633 22.191 22.241 40 10.343z" />
  <path fill="#fff" d="M22.191 17.044L19.537 21.652 38.041 34 40 34 40 28.941z" />
  <path fill="#fff" d="M0 29.492L0 34 3 34 21.312 21.653 18.658 17.044z" />
  <path fill="#fff" d="M1 17H39V23H1z" />
  <path fill="#fff" d="M17 7H23V33H17z" />
  <path fill="#a3b7cc" d="M17 6H23V7H17zM17 33H23V34H17zM39 17H40V23H39zM0 17H1V23H0z" />
  <path fill="#f78f8f" d="M18.5 33.5L18.5 21.5 0.5 21.5 0.5 18.5 18.5 18.5 18.5 6.5 21.5 6.5 21.5 18.5 39.5 18.5 39.5 21.5 21.5 21.5 21.5 33.5z" />
  <path fill="#c74343" d="M21,7v11v1h1h17v2H22h-1v1v11h-2V22v-1h-1H1v-2h17h1v-1V7H21 M22,6h-4v12H0v4h18v12h4V22h18v-4H22V6 L22,6z" />
  <path fill="#a3b7cc" d="M36.938 6L35.442 7 39 7 39 11.011 40 10.343 40 6z" />
  <path fill="#c74343" d="M40 6L39 6 23 17 25.465 17 40 7z" />
  <path fill="#a3b7cc" d="M0 9.794L1 10.462 1 7 5.406 7 3.91 6 0 6z" />
  <path fill="#c74343" d="M0 7L0 8.651 12.485 17 15 17z" />
  <path fill="#a3b7cc" d="M1 33L1 28.825 0 29.492 0 34 3 34 4.483 33z" />
  <path fill="#c74343" d="M17 23L14.535 23 0 33 0 34 1 34z" />
  <path fill="#a3b7cc" d="M40 28.941L39 28.273 39 33 36.542 33 38.041 34 40 34z" />
  <path fill="#c74343" d="M40 30.264L29.592 23 27 23 40 32z" />
</svg>